<?xml version="1.0" encoding="UTF-8" standalone="no"?><!DOCTYPE svg PUBLIC "-//W3C//DTD SVG 1.1//EN" "http://www.w3.org/Graphics/SVG/1.1/DTD/svg11.dtd"><svg width="100%" height="100%" viewBox="0 0 3334 3334" version="1.1" xmlns="http://www.w3.org/2000/svg" xmlns:xlink="http://www.w3.org/1999/xlink" xml:space="preserve" xmlns:serif="http://www.serif.com/" style="fill-rule:evenodd;clip-rule:evenodd;stroke-linecap:round;stroke-linejoin:round;stroke-miterlimit:1.5;"><path d="M2899.3,0c239.708,0 434.029,194.321 434.029,434.029l0,2465.28c0,239.709 -194.32,434.029 -434.029,434.029l-2465.28,0c-239.708,0 -434.029,-194.32 -434.029,-434.029l-0,-2465.28c-0,-239.708 194.321,-434.029 434.029,-434.029l2465.28,0Z" style="fill:#053726;"/><circle cx="1643.78" cy="1666.67" r="1384.14" style="fill:#053726;stroke:#c93;stroke-width:288.63px;"/><g><path d="M1425.82,669.687c4.931,-1.341 31.808,-1.457 80.631,-0.332c48.822,1.117 76.37,2.574 82.642,4.369c8.507,2.682 14.332,6.38 17.468,11.081c3.136,4.708 5.371,11.982 6.72,21.837c1.341,20.663 1.564,66.587 0.67,137.78c-0.894,71.187 -0.67,147.196 0.671,228.043c1.34,80.833 4.7,122.597 10.078,125.293c12.091,6.741 54.756,10.108 127.99,10.108c73.241,0 116.577,-3.569 130.016,-10.706c12.537,-6.251 20.604,-8.594 24.187,-7.022c3.583,1.557 2.235,8.139 -4.037,19.747c-0,0.447 -0.555,1.679 -1.68,3.691c-1.117,2.019 -1.903,3.36 -2.35,4.037c-0.447,0.671 -1.233,1.788 -2.35,3.353c-1.118,1.571 -2.351,2.804 -3.692,3.698c-1.348,0.894 -3.028,1.903 -5.039,3.021c-2.019,1.125 -4.369,2.134 -7.058,3.028c-15.227,4.477 -51.396,8.622 -108.51,12.429c-57.106,3.807 -112.763,5.263 -166.964,4.369c-54.193,-0.901 -83.089,-5.155 -86.672,-12.768c-5.818,-12.098 -6.943,-102.922 -3.36,-272.482c3.583,-169.559 3.583,-255.453 0,-257.688c-4.03,-4.902 -12.652,-8.139 -25.867,-9.697c-13.215,-1.564 -25.082,-2.343 -35.608,-2.343c-10.526,0 -18.254,-0.67 -23.178,-2.018c-2.689,-0.894 -4.484,-3.129 -5.378,-6.719c-0.894,-3.584 -0.894,-6.943 -0,-10.072l0.67,-4.037Z" style="fill:#c93;fill-rule:nonzero;"/><path d="M1372.89,1474.47c-9.107,-3.216 -0,-12.33 27.335,-27.335c8.04,-4.291 20.903,-10.723 38.591,-19.296c21.437,-10.181 46.364,-17.954 74.766,-23.311c26.802,-4.824 59.894,-9.114 99.285,-12.864c39.391,-3.757 78.248,-6.698 116.573,-8.848c38.324,-2.141 74.766,-3.749 109.332,-4.823c34.576,-1.067 62.844,-1.208 84.814,-0.4c21.978,0.799 33.767,2.274 35.375,4.424c4.291,7.498 5.765,20.362 4.424,38.582c-1.341,18.229 -4.424,28.01 -9.248,29.352c-4.824,1.333 -28.002,3.216 -69.542,5.623c-41.532,2.408 -81.198,6.032 -118.98,10.856c-37.783,4.824 -58.82,10.714 -63.111,17.688c-6.965,15.538 -10.447,77.307 -10.447,185.306c-0,107.992 2.141,168.686 6.432,182.091c2.141,8.04 5.357,12.589 9.647,13.664c4.283,1.075 8.84,0.675 13.664,-1.208c4.824,-1.875 8.04,-2.275 9.648,-1.2c3.749,2.141 4.557,9.239 2.416,21.303c-2.15,12.056 -4.824,19.163 -8.04,21.304c-0.542,1.074 -8.581,5.223 -24.119,12.463c-15.547,7.232 -28.136,15.672 -37.783,25.32c-3.758,3.749 -10.456,7.098 -20.104,10.047c-9.648,2.949 -19.295,3.758 -28.943,2.416c-9.648,-1.341 -15.538,-5.498 -17.679,-12.463c-3.216,-23.045 -3.491,-65.119 -0.809,-126.221c2.683,-61.094 3.75,-128.628 3.216,-202.586c-0.533,-73.966 -4.29,-117.106 -11.255,-129.436c-8.04,-3.75 -24.386,-5.091 -49.039,-4.016c-24.652,1.066 -55.47,1.466 -92.453,1.2c-36.983,-0.267 -61.636,-2.808 -73.966,-7.632Z" style="fill:#c93;fill-rule:nonzero;"/><path d="M1213.56,2618.32c34.567,0 53.609,-3.982 57.11,-11.955c15.31,-35.311 36.086,-87.99 62.336,-158.036c26.249,-70.056 50.534,-131.562 72.847,-184.529c22.321,-52.966 43.763,-94.533 64.325,-124.72c4.816,-7.408 11.161,-12.532 19.034,-15.382c7.881,-2.839 15.647,-3.555 23.307,-2.135c7.659,1.431 14.998,3.843 22.009,7.269c7.018,3.416 12.607,7.537 16.773,12.383c4.167,4.835 6.033,9.543 5.589,14.09c-0.436,3.427 -6.682,15.67 -18.738,36.742c-12.065,21.071 -18.089,32.749 -18.089,35.022c0,7.974 27.984,52.818 83.951,134.552c55.967,81.723 83.95,122.863 83.95,123.439c0.436,2.274 3.074,-3.416 7.898,-17.09c7.027,-18.787 23.923,-68.903 50.699,-150.349c48.726,-146.368 75.387,-221.826 79.989,-226.384c4.61,-4.558 13.174,-2.989 25.682,4.697c12.517,7.696 23.924,18.371 34.246,32.045c10.314,13.663 15.04,25.618 14.16,35.876c0,3.416 -4.503,16.087 -13.503,38.012c-8.999,21.925 -14.48,36.731 -16.461,44.427c-1.972,7.686 17.998,42.709 59.92,105.069c41.922,62.36 84.501,125.862 127.729,190.507c43.237,64.633 64.86,102.079 64.86,112.338c-0,9.105 -17.325,13.663 -51.965,13.663c-34.64,-0 -54.586,-3.469 -59.846,-10.429c-1.759,-4.633 -1.759,-8.102 0,-10.418c1.751,-2.327 4.167,-7.547 7.232,-15.66c3.066,-8.112 4.602,-16.449 4.602,-24.999c0,-12.532 -14.028,-44.278 -42.094,-95.248c-28.057,-50.971 -57.216,-98.953 -87.476,-143.945c-30.252,-44.993 -48.225,-65.787 -53.929,-62.361c-4.388,2.84 -15.894,29.9 -34.533,81.148c-18.631,51.258 -37.928,105.559 -57.874,162.892c-19.954,57.321 -32.561,91.49 -37.82,102.506c-3.945,7.537 -12.936,10.718 -26.965,9.565c-14.028,-1.164 -22.797,-6.085 -26.307,-14.784c-2.194,-4.633 -2.629,-11.71 -1.315,-21.221c1.315,-9.522 3.066,-17.837 5.26,-24.957c2.194,-7.12 4.931,-16.236 8.219,-27.337c3.287,-11.112 5.596,-20.933 6.911,-29.472c2.186,-14.806 -33.983,-68.915 -108.523,-162.316c-3.945,-5.124 -8.44,-10.813 -13.486,-17.079c-5.038,-6.266 -8.991,-11.39 -11.835,-15.382c-2.851,-3.982 -6.139,-8.262 -9.87,-12.809c-3.723,-4.558 -6.796,-8.262 -9.204,-11.113c-2.417,-2.839 -5.047,-5.689 -7.898,-8.539c-2.844,-2.85 -5.26,-4.846 -7.232,-5.978c-1.973,-1.142 -4.052,-2.284 -6.246,-3.416c-2.195,-1.142 -4.167,-1.569 -5.918,-1.281c-1.758,0.278 -3.731,0.705 -5.925,1.281c-7.01,3.982 -15.672,16.941 -25.978,38.866c-10.306,21.925 -23.455,53.821 -39.465,95.675c-16.001,41.865 -27.728,71.615 -35.182,89.271c-35.52,82.428 -60.734,127.111 -75.642,134.071c-15.344,7.44 -40.771,0.192 -76.291,-21.744c-18.853,-12.169 -27.622,-20.271 -26.307,-24.338l3.279,0Z" style="fill:#c93;fill-rule:nonzero;"/></g></svg>